<svg width="20" height="20" fill="none" xmlns="http://www.w3.org/2000/svg"><path d="M9.98 19.88c1.67 0 3.03-.02 4.08-.06.9-.03 1.7-.2 2.4-.46a4.99 4.99 0 0 0 2.9-2.9c.27-.7.43-1.5.46-2.4.04-1.05.06-2.41.06-4.08s-.02-3.03-.06-4.08a7.5 7.5 0 0 0-.46-2.4 4.98 4.98 0 0 0-2.9-2.9 7.5 7.5 0 0 0-2.4-.46C13.01.1 11.65.08 9.98.08S6.95.1 5.9.14C5 .18 4.2.34 3.5.6A4.98 4.98 0 0 0 .6 3.5a7.5 7.5 0 0 0-.46 2.4C.1 6.95.08 8.3.08 9.98s.02 3.03.06 4.08c.04.9.2 1.7.47 2.4a4.98 4.98 0 0 0 2.89 2.9c.7.27 1.5.43 2.4.46 1.05.04 2.41.06 4.08.06Zm0-1.29c-1.73 0-3.14-.02-4.24-.05a6.27 6.27 0 0 1-1.95-.38 3.57 3.57 0 0 1-2-1.99 6.27 6.27 0 0 1-.36-1.95c-.04-1.1-.06-2.5-.06-4.24 0-1.73.02-3.14.06-4.24.02-.7.15-1.35.37-1.95.39-.94 1.05-1.6 1.99-2 .6-.21 1.25-.34 1.95-.36 1.1-.04 2.5-.06 4.24-.06 1.73 0 3.14.02 4.24.06.7.02 1.35.15 1.95.37.94.39 1.6 1.05 2 1.99.22.6.34 1.25.37 1.95.03 1.1.05 2.5.05 4.24 0 1.73-.02 3.14-.05 4.24-.03.7-.15 1.35-.38 1.95-.39.94-1.05 1.6-1.99 2-.6.22-1.25.34-1.95.37-1.1.03-2.5.05-4.24.05Zm0-12.57c1.1 0 2.03.38 2.8 1.16.78.77 1.17 1.7 1.17 2.8 0 1.1-.4 2.03-1.17 2.8a3.82 3.82 0 0 1-2.8 1.17c-1.1 0-2.03-.4-2.8-1.17a3.82 3.82 0 0 1-1.16-2.8c0-1.1.38-2.03 1.16-2.8a3.82 3.82 0 0 1 2.8-1.16Zm0 9.04c1.4 0 2.6-.5 3.6-1.49a4.9 4.9 0 0 0 1.48-3.59c0-1.4-.5-2.6-1.49-3.6A4.9 4.9 0 0 0 9.98 4.9c-1.4 0-2.6.5-3.6 1.49A4.9 4.9 0 0 0 4.9 9.98c0 1.4.5 2.6 1.49 3.6a4.9 4.9 0 0 0 3.59 1.48Zm6.48.2a1.19 1.19 0 0 0-1.21-1.17c-.32 0-.6.1-.83.33-.22.23-.34.5-.34.83a1.19 1.19 0 0 0 1.17 1.21c.33 0 .61-.12.85-.36s.36-.52.36-.85Z" fill="#666"/></svg>