<svg width="13" height="20" fill="none" xmlns="http://www.w3.org/2000/svg"><path fill-rule="evenodd" clip-rule="evenodd" d="M3.62 18.81c0 .3.24.55.55.55h3.66c.3 0 .55-.25.55-.55v-6.64h2.2c.25 0 .47-.17.54-.41l.91-3.6a.55.55 0 0 0-.53-.69H8.38V5.33c0-.1.04-.18.1-.25.07-.06.17-.1.27-.1h2.75c.3 0 .55-.25.55-.55V.83c0-.3-.25-.55-.55-.55H8.75c-1.36 0-2.66.53-3.63 1.48a5 5 0 0 0-1.5 3.57v2.14h-2.2c-.3 0-.55.25-.55.55v3.6c0 .3.24.55.55.55h2.2v6.64Zm1.1-.55v-6.64c0-.3-.25-.55-.55-.55h-2.2v-2.5h2.2c.3 0 .55-.24.55-.55v-2.7a3.9 3.9 0 0 1 1.17-2.78 4.08 4.08 0 0 1 2.86-1.16h2.2v2.5h-2.2c-.39 0-.76.15-1.03.42-.28.27-.44.64-.44 1.03v2.7c0 .3.25.54.55.54h2.96l-.63 2.5H7.83c-.3 0-.55.25-.55.55v6.64H4.72Z" fill="#666"/></svg>