<svg width="20" height="20" viewBox="0 0 20 20" xmlns="http://www.w3.org/2000/svg">
<path d="M9.98047 19.8828C11.6471 19.8828 13.0078 19.8633 14.0625 19.8242C14.9609 19.7852 15.7617 19.6289 16.4648 19.3555C17.1419 19.0951 17.7279 18.7174 18.2227 18.2227C18.7174 17.7279 19.0951 17.1419 19.3555 16.4648C19.6289 15.7617 19.7852 14.9609 19.8242 14.0625C19.8633 13.0078 19.8828 11.6471 19.8828 9.98047C19.8828 8.3138 19.8633 6.95312 19.8242 5.89844C19.7852 5 19.6289 4.19922 19.3555 3.49609C19.0951 2.81901 18.7174 2.23307 18.2227 1.73828C17.7279 1.24349 17.1419 0.865885 16.4648 0.605469C15.7617 0.332031 14.9609 0.175781 14.0625 0.136719C13.0078 0.0976562 11.6471 0.078125 9.98047 0.078125C8.3138 0.078125 6.95312 0.0976562 5.89844 0.136719C5 0.175781 4.19922 0.332031 3.49609 0.605469C2.81901 0.865885 2.23307 1.24349 1.73828 1.73828C1.24349 2.23307 0.865885 2.81901 0.605469 3.49609C0.332031 4.19922 0.175781 5 0.136719 5.89844C0.0976562 6.95312 0.078125 8.3138 0.078125 9.98047C0.078125 11.6471 0.0976562 13.0078 0.136719 14.0625C0.175781 14.9609 0.332031 15.7617 0.605469 16.4648C0.865885 17.1419 1.24349 17.7279 1.73828 18.2227C2.23307 18.7174 2.81901 19.0951 3.49609 19.3555C4.19922 19.6289 5 19.7852 5.89844 19.8242C6.95312 19.8633 8.3138 19.8828 9.98047 19.8828ZM9.98047 18.5937C8.2487 18.5937 6.83594 18.5742 5.74219 18.5352C5.03906 18.5091 4.38802 18.3854 3.78906 18.1641C2.85156 17.7734 2.1875 17.1094 1.79688 16.1719C1.57552 15.5729 1.45182 14.9219 1.42578 14.2187C1.38672 13.125 1.36719 11.7122 1.36719 9.98047C1.36719 8.2487 1.38672 6.83594 1.42578 5.74219C1.45182 5.03906 1.57552 4.38802 1.79688 3.78906C2.1875 2.85156 2.85156 2.1875 3.78906 1.79688C4.38802 1.57552 5.03906 1.45182 5.74219 1.42578C6.83594 1.38672 8.2487 1.36719 9.98047 1.36719C11.7122 1.36719 13.125 1.38672 14.2188 1.42578C14.9219 1.45182 15.5729 1.57552 16.1719 1.79688C17.1094 2.1875 17.7734 2.85156 18.1641 3.78906C18.3854 4.38802 18.5091 5.03906 18.5352 5.74219C18.5742 6.83594 18.5938 8.2487 18.5938 9.98047C18.5938 11.7122 18.5742 13.125 18.5352 14.2187C18.5091 14.9219 18.3854 15.5729 18.1641 16.1719C17.7734 17.1094 17.1094 17.7734 16.1719 18.1641C15.5729 18.3854 14.9219 18.5091 14.2188 18.5352C13.125 18.5742 11.7122 18.5937 9.98047 18.5937ZM9.98047 6.01562C11.0742 6.01562 12.0085 6.40299 12.7832 7.17773C13.5579 7.95247 13.9453 8.88672 13.9453 9.98047C13.9453 11.0742 13.5579 12.0085 12.7832 12.7832C12.0085 13.5579 11.0742 13.9453 9.98047 13.9453C8.88672 13.9453 7.95247 13.5579 7.17773 12.7832C6.40299 12.0085 6.01562 11.0742 6.01562 9.98047C6.01562 8.88672 6.40299 7.95247 7.17773 7.17773C7.95247 6.40299 8.88672 6.01562 9.98047 6.01562ZM9.98047 15.0586C11.3867 15.0586 12.5846 14.5638 13.5742 13.5742C14.5638 12.5846 15.0586 11.3867 15.0586 9.98047C15.0586 8.57422 14.5638 7.3763 13.5742 6.38672C12.5846 5.39713 11.3867 4.90234 9.98047 4.90234C8.57422 4.90234 7.3763 5.39713 6.38672 6.38672C5.39714 7.3763 4.90234 8.57422 4.90234 9.98047C4.90234 11.3867 5.39714 12.5846 6.38672 13.5742C7.3763 14.5638 8.57422 15.0586 9.98047 15.0586ZM16.4648 15.2539C16.4648 14.9284 16.3477 14.6517 16.1133 14.4238C15.8789 14.196 15.5924 14.082 15.2539 14.082C14.9284 14.082 14.6517 14.196 14.4238 14.4238C14.196 14.6517 14.082 14.9284 14.082 15.2539C14.082 15.5924 14.196 15.8789 14.4238 16.1133C14.6517 16.3477 14.9284 16.4648 15.2539 16.4648C15.5794 16.4648 15.8626 16.3444 16.1035 16.1035C16.3444 15.8626 16.4648 15.5794 16.4648 15.2539Z"/>
</svg>
