<svg width="13" height="20" viewBox="0 0 13 20" xmlns="http://www.w3.org/2000/svg">
<path fill-rule="evenodd" clip-rule="evenodd" d="M3.6167 18.8101C3.6167 19.1139 3.86294 19.3601 4.1667 19.3601H7.83337C8.13712 19.3601 8.38337 19.1139 8.38337 18.8101V12.1694H10.5834C10.8348 12.1694 11.0542 11.9989 11.1163 11.7553L12.033 8.15996C12.0749 7.99541 12.0385 7.8207 11.9343 7.68661C11.8301 7.55252 11.6698 7.47408 11.5 7.47408H8.38337V5.32757C8.38337 5.23858 8.41932 5.15099 8.48692 5.0847C8.55489 5.01806 8.64934 4.97873 8.75003 4.97873H11.5C11.8038 4.97873 12.05 4.73249 12.05 4.42873V0.833389C12.05 0.529633 11.8038 0.28339 11.5 0.28339H8.75003C7.39204 0.28339 6.08754 0.812256 5.12406 1.75699C4.16021 2.70209 3.6167 3.98624 3.6167 5.32757V7.47408H1.4167C1.11294 7.47408 0.866699 7.72032 0.866699 8.02408V11.6194C0.866699 11.9232 1.11294 12.1694 1.4167 12.1694H3.6167V18.8101ZM4.7167 18.2601V11.6194C4.7167 11.3157 4.47046 11.0694 4.1667 11.0694H1.9667V8.57408H4.1667C4.47046 8.57408 4.7167 8.32783 4.7167 8.02408V5.32757C4.7167 4.28503 5.13896 3.28296 5.8942 2.54241C6.6498 1.80151 7.67688 1.38339 8.75003 1.38339H10.95V3.87873H8.75003C8.3645 3.87873 7.99263 4.0288 7.71678 4.29928C7.44057 4.57012 7.28337 4.93979 7.28337 5.32757V8.02408C7.28337 8.32783 7.52961 8.57408 7.83337 8.57408H10.7922L10.156 11.0694H7.83337C7.52961 11.0694 7.28337 11.3157 7.28337 11.6194V18.2601H4.7167Z"/>
</svg>
