<svg xmlns="http://www.w3.org/2000/svg" xmlns:xlink="http://www.w3.org/1999/xlink"><symbol id="icon_academy"><path d="M13.643.016 13.5 0 0 1.407v24.606L13.5 34 27 26.013V1.407L13.643.016Zm11.591 25L13.5 31.956 1.766 25.015V14.93l11.685 6.916.02 1.253-8.017-4.743-.011 1.225 8.046 4.809.02 1.286-8.045-4.758-.01 1.226L13.5 26.95l8.124-4.833V16.91l3.62-2.15-.01 10.256Zm0-11.564-3.22 1.88-1.482.875-7.065-4.187-.011 1.225 6.04 3.573-.053.031-.13.076-.86.492-4.986-2.948-.011 1.225 3.936 2.328-.933.61-.021.012-2.971-1.742-.011 1.225 1.947 1.135-1.988 1.186-11.618-6.872 11.638-6.958 11.8 6.834Zm0-1.225L13.44 5.31 1.766 12.22V2.99L13.5 1.764 25.234 2.99v9.237Z"/></symbol><symbol id="icon_email"><path fill-rule="evenodd" clip-rule="evenodd" d="M0 13.85v-8h1.3v8H0Zm17 0v-8h1.3v8H17Z"/><path fill-rule="evenodd" clip-rule="evenodd" d="M18 13.85H0v-1.3h18v1.3Zm0-12H0V.55h18v1.3Z"/><path fill-rule="evenodd" clip-rule="evenodd" d="m9 8.7 7.7-5.99v-.56H1.3v.56l7.7 6ZM0 3.35l9 7 9-7V.85H0v2.5Z"/></symbol><symbol id="icon_facebook"><path fill-rule="evenodd" clip-rule="evenodd" d="M3.617 18.81c0 .304.246.55.55.55h3.666a.55.55 0 0 0 .55-.55v-6.64h2.2a.55.55 0 0 0 .533-.415l.917-3.595a.55.55 0 0 0-.533-.686H8.383V5.328a.34.34 0 0 1 .104-.243.376.376 0 0 1 .263-.106h2.75a.55.55 0 0 0 .55-.55V.833a.55.55 0 0 0-.55-.55H8.75a5.18 5.18 0 0 0-3.626 1.474 5 5 0 0 0-1.507 3.57v2.147h-2.2a.55.55 0 0 0-.55.55v3.595c0 .304.246.55.55.55h2.2v6.641Zm1.1-.55v-6.64a.55.55 0 0 0-.55-.55h-2.2V8.573h2.2a.55.55 0 0 0 .55-.55V5.328a3.9 3.9 0 0 1 1.177-2.786A4.08 4.08 0 0 1 8.75 1.383h2.2V3.88h-2.2c-.386 0-.757.15-1.033.42a1.44 1.44 0 0 0-.434 1.029v2.696c0 .304.247.55.55.55h2.96l-.637 2.495H7.833a.55.55 0 0 0-.55.55v6.641H4.717Z"/></symbol><symbol id="icon_instagram"><path d="M9.98 19.883c1.667 0 3.028-.02 4.082-.059.899-.039 1.7-.195 2.403-.469a4.985 4.985 0 0 0 1.758-1.132 4.985 4.985 0 0 0 1.133-1.758c.273-.703.43-1.504.468-2.402.04-1.055.059-2.416.059-4.083 0-1.666-.02-3.027-.059-4.082-.039-.898-.195-1.699-.469-2.402a4.985 4.985 0 0 0-1.132-1.758A4.984 4.984 0 0 0 16.465.605c-.703-.273-1.504-.43-2.402-.468C13.008.097 11.646.078 9.98.078c-1.666 0-3.027.02-4.082.059C5 .176 4.2.332 3.496.605a4.984 4.984 0 0 0-1.758 1.133A4.984 4.984 0 0 0 .605 3.496C.332 4.2.175 5 .137 5.898.097 6.953.078 8.314.078 9.98c0 1.667.02 3.028.059 4.082.039.899.195 1.7.468 2.403.26.677.638 1.263 1.133 1.758.495.494 1.081.872 1.758 1.133.703.273 1.504.43 2.402.468 1.055.04 2.416.059 4.082.059Zm0-1.29a123.7 123.7 0 0 1-4.238-.058 6.273 6.273 0 0 1-1.953-.37 3.566 3.566 0 0 1-1.992-1.993 6.27 6.27 0 0 1-.371-1.953c-.04-1.094-.059-2.507-.059-4.239 0-1.731.02-3.144.059-4.238a6.27 6.27 0 0 1 .37-1.953A3.566 3.566 0 0 1 3.79 1.797a6.27 6.27 0 0 1 1.953-.371 123.51 123.51 0 0 1 4.238-.059c1.732 0 3.145.02 4.239.059a6.27 6.27 0 0 1 1.953.37 3.566 3.566 0 0 1 1.992 1.993c.221.599.345 1.25.371 1.953.04 1.094.059 2.507.059 4.238 0 1.732-.02 3.145-.059 4.239a6.274 6.274 0 0 1-.37 1.953 3.567 3.567 0 0 1-1.993 1.992 6.274 6.274 0 0 1-1.953.371c-1.094.04-2.507.059-4.239.059Zm0-12.577c1.094 0 2.028.387 2.803 1.162.775.774 1.162 1.709 1.162 2.802 0 1.094-.387 2.028-1.162 2.803-.774.775-1.709 1.162-2.803 1.162-1.093 0-2.028-.387-2.802-1.162-.775-.774-1.162-1.709-1.162-2.803 0-1.093.387-2.028 1.162-2.802.774-.775 1.709-1.162 2.802-1.162Zm0 9.043c1.407 0 2.605-.495 3.594-1.485.99-.99 1.485-2.187 1.485-3.594 0-1.406-.495-2.604-1.485-3.593-.99-.99-2.187-1.485-3.594-1.485-1.406 0-2.604.495-3.593 1.485-.99.99-1.485 2.187-1.485 3.593 0 1.407.495 2.605 1.485 3.594.99.99 2.187 1.485 3.593 1.485Zm6.485.195c0-.326-.117-.602-.352-.83a1.187 1.187 0 0 0-.86-.342 1.13 1.13 0 0 0-.83.342 1.13 1.13 0 0 0-.341.83c0 .338.114.625.342.86.228.234.504.35.83.35.325 0 .609-.12.85-.36.24-.241.36-.525.36-.85Z"/></symbol><symbol id="icon_phone"><path d="M18.9 9.75h-8.5v1.2h8.5l-2.1 2.11.9.9 3.1-3.1a.75.75 0 0 0 0-.9l-3.1-3.12-.9.9 2.1 2.01ZM9.1 19.79v-6.22a.65.65 0 0 0-.6-.6H4.1a1.23 1.23 0 0 0 1.2 1.2h2.5v5.02H4.1a1.78 1.78 0 0 1-1.9-1.71V3.43a1.78 1.78 0 0 1 1.7-1.8h3.9v5.01H5.4a1.22 1.22 0 0 0-1.2 1.2h4.4a.65.65 0 0 0 .6-.6V.92a.86.86 0 0 0-.7-.6H4.1A3 3 0 0 0 1 3.23v13.95a2.9 2.9 0 0 0 2.9 3.1h4.6a.5.5 0 0 0 .6-.5Z"/></symbol><symbol id="icon_vkontakte"><path d="M.07 4c0-.63.42-.96 1.27-1.01L4.6 3c.22 0 .37.09.44.27.33.91.7 1.7 1.13 2.37.41.66.95 1.43 1.63 2.3a.3.3 0 0 0 .28.16c.1 0 .18-.04.24-.13l.07-.2.02-3.17c0-.21-.06-.36-.19-.43A1.9 1.9 0 0 0 7.53 4c-.26-.04-.4-.17-.4-.4 0-.05.02-.09.03-.11.3-.8 1.18-1.19 2.63-1.19L11 2.29c.56 0 1.02.12 1.38.35.37.23.55.6.55 1.1v4.15c.1.06.2.09.28.09.22 0 .41-.11.57-.33 1.6-1.88 2.48-3.13 2.6-3.77a1.29 1.29 0 0 1 .55-.57c.24-.13.44-.22.62-.27a.5.5 0 0 1 .2-.03h3.39l.21.01c.3 0 .52.12.68.35.06.07.1.15.12.24a1.57 1.57 0 0 1 .06.4v.13c-.1.5-.36 1.03-.78 1.6-.41.57-.94 1.18-1.59 1.84-.64.66-1.04 1.09-1.2 1.3-.13.14-.2.28-.2.4 0 .1.06.2.18.33l3.2 3.36c.17.2.26.41.26.64 0 .28-.13.52-.4.7-.26.18-.57.28-.94.3l-.37.03h-3.33a.8.8 0 0 0-.08 0 .8.8 0 0 1-.1.02c-.31 0-.61-.12-.89-.35a182 182 0 0 1-2.06-2.16 1.1 1.1 0 0 0-.3-.24 25.63 25.63 0 0 0-.44 1.63l-.07.31c-.14.43-.45.68-.92.77l-.3.02H9.74a5.92 5.92 0 0 1-3.62-1.4 14.5 14.5 0 0 1-3.25-3.59A32.9 32.9 0 0 1 .18 4.52 1.24 1.24 0 0 1 .07 4Zm13.15 4.73c-.3 0-.58-.07-.83-.21-.25-.14-.37-.33-.37-.58v-4.2c0-.25-.07-.42-.22-.52-.15-.1-.4-.16-.77-.16L9.8 3.1c-.63 0-1.1.09-1.43.27.65.26.97.67.97 1.24v3.22c-.03.3-.18.56-.44.76-.26.2-.55.3-.88.3-.43 0-.77-.17-1-.53a18.47 18.47 0 0 1-2.54-4.1l-.2-.47-2.9-.02c-.2 0-.3.01-.33.03-.02.02-.03.07-.03.16 0 .1.02.22.04.34l.46 1.03a23.46 23.46 0 0 0 4 6.25c1.44 1.53 2.85 2.29 4.23 2.29h2.2c.08 0 .15-.02.19-.07a.52.52 0 0 0 .1-.24l.05-.18.42-1.61c.11-.22.22-.37.3-.44.16-.14.35-.2.57-.2.35 0 .71.17 1.08.53l1.86 1.97c.11.16.24.24.37.24h3.6c.45 0 .67-.1.67-.28a.31.31 0 0 0-.07-.18l-3.17-3.3a1.17 1.17 0 0 1-.38-.83c0-.3.12-.57.35-.84.2-.25.56-.65 1.11-1.22a28.2 28.2 0 0 0 1.43-1.59c.41-.5.68-.94.81-1.34l.07-.24a.24.24 0 0 1-.02-.12l-.02-.14h-3.44c-.22.07-.4.18-.53.33l-.13.35c-.36.84-1.32 2.14-2.86 3.9-.31.24-.67.36-1.08.36Z"/></symbol></svg>